#!OML:ASF F:\VICON\USERDATA\INSTALL\rory3\rory3.ASF
:FULLY-SPECIFIED
:DEGREES
393
root 4.1169 16.7852 0.146985 12.5881 0.548241 -0.271468
lowerback 5.28915 -2.04834 5.31464
upperback 0.936145 -2.48112 -2.23705
thorax -2.32415 -1.28857 -5.12502
lowerneck -10.9784 5.09176 0.74095
upperneck 50.2173 8.46644 -0.364241
head 23.4837 3.15506 1.43606
rclavicle -1.76918e-014 2.78299e-015
rhumerus -27.745 21.1109 -74.2201
rradius 106.768
rwrist -52.1641
rhand 0.181228 -36.3069
rfingers 7.12502
rthumb 25.7639 -64.5826
lclavicle -1.76918e-014 2.78299e-015
lhumerus 12.0206 -6.34733 58.0499
lradius 93.172
lwrist 54.8189
lhand -21.2833 -22.8175
lfingers 7.12502
lthumb 5.1008 7.10112
rfemur -58.7334 7.17733 18.0204
rtibia 77.7464
rfoot 16.4142 -6.46962
rtoes -18.7797
lfemur -33.1181 -0.771027 -29.1067
ltibia 43.2642
lfoot -20.2906 12.909
ltoes 9.2588
394
root 4.12129 16.7915 0.155676 12.5926 0.825786 -0.179768
lowerback 5.295 -2.08213 5.46048
upperback 1.01803 -2.52028 -2.31145
thorax -2.25715 -1.30556 -5.284
lowerneck -11.1575 5.1043 0.824233
upperneck 50.2574 8.47676 -0.362876
head 23.6105 3.17009 1.43639
rclavicle -1.27222e-014 0
rhumerus -28.09 21.2458 -74.8228
rradius 106.63
rwrist -51.9996
rhand 0.315185 -36.5233
rfingers 7.12502
rthumb 25.8922 -64.7803
lclavicle -1.27222e-014 0
lhumerus 11.6628 -6.56212 58.5926
lradius 93.2602
lwrist 54.7996
lhand -21.2758 -22.8255
lfingers 7.12502
lthumb 5.10809 7.09293
rfemur -58.5914 6.83635 17.9708
rtibia 77.7642
rfoot 16.4854 -6.38873
rtoes -18.6923
lfemur -33.0495 -1.08189 -29.1907
ltibia 43.323
lfoot -20.2963 13.1052
ltoes 8.83149
395
root 4.12037 16.7917 0.162952 12.6187 0.974889 -0.167015
lowerback 4.98789 -2.09447 5.51376
upperback 1.19883 -2.55147 -2.31736
thorax -1.90445 -1.3061 -5.33096
lowerneck -11.2259 5.13818 0.983029
upperneck 50.4006 8.56319 -0.495296
head 23.8293 3.20856 1.36232
rclavicle 7.95139e-016 -7.15625e-015
rhumerus -28.3404 21.4648 -75.3945
rradius 106.547
rwrist -51.979
rhand 0.463876 -36.7214
rfingers 7.12502
rthumb 26.0346 -64.9576
lclavicle 7.95139e-016 -7.15625e-015
lhumerus 11.3723 -6.61434 59.1149
lradius 93.2331
lwrist 54.9024
lhand -21.3424 -22.8638
lfingers 7.12502
lthumb 5.04374 7.05622
rfemur -58.5405 6.66146 17.9988
rtibia 77.8003
rfoot 16.6199 -6.28724
rtoes -18.8854
lfemur -33.0068 -1.2218 -29.2326
ltibia 43.3862
lfoot -20.2581 13.3548
ltoes 8.14182
396
root 4.11417 16.7872 0.16374 12.6918 1.0539 -0.167178
lowerback 4.90277 -2.10939 5.47988
upperback 1.22167 -2.57723 -2.29785
thorax -1.83426 -1.31598 -5.29242
lowerneck -11.2155 5.22898 1.22378
upperneck 50.6822 8.77249 -0.709376
head 24.1949 3.29388 1.25488
rclavicle 1.2921e-014 7.55382e-015
rhumerus -28.7657 21.7243 -76.0404
rradius 106.491
rwrist -52.0635
rhand 0.420161 -37.0821
rfingers 7.12502
rthumb 25.9928 -65.3244
lclavicle 1.2921e-014 7.55382e-015
lhumerus 10.904 -6.74385 59.5819
lradius 93.2091
lwrist 55.1153
lhand -21.4909 -22.667
lfingers 7.12502
lthumb 4.90032 7.25632
rfemur -58.628 6.59097 18.0371
rtibia 77.8791
rfoot 16.6839 -6.10809
rtoes -19.7694
lfemur -33.0935 -1.30343 -29.2268
ltibia 43.4749
lfoot -20.2302 13.4253
ltoes 7.74002
397
root 4.10781 16.7783 0.163147 12.759 1.16061 0.0311828
lowerback 4.86458 -2.14682 5.30923
upperback 1.29821 -2.63929 -2.35628
thorax -1.73715 -1.34151 -5.25474
lowerneck -11.3303 5.31431 1.17723
upperneck 50.7186 8.90077 -0.625029
head 24.2705 3.33516 1.34831
rclavicle 1.5704e-014 1.98785e-015
rhumerus -28.8746 21.9675 -76.6135
rradius 106.274
rwrist -52.1634
rhand 0.779095 -37.7552
rfingers 7.12502
rthumb 26.3364 -65.9466
lclavicle 1.5704e-014 1.98785e-015
lhumerus 10.5822 -6.8873 59.9609
lradius 93.1505
lwrist 55.3148
lhand -21.5549 -22.6743
lfingers 7.12502
lthumb 4.8386 7.25041
rfemur -58.7472 6.43426 17.8634
rtibia 78.0242
rfoot 16.6606 -5.71412
rtoes -21.2355
lfemur -33.2385 -1.45363 -29.4009
ltibia 43.609
lfoot -20.2129 13.498
ltoes 7.33715
398
root 4.09918 16.7646 0.159436 12.7992 1.19662 0.241678
lowerback 4.8289 -2.18975 5.08604
upperback 1.4601 -2.71082 -2.3971
thorax -1.55096 -1.367 -5.16988
lowerneck -11.422 5.39612 0.987321
upperneck 50.6268 9.02724 -0.487347
head 24.1677 3.36012 1.49044
rclavicle 3.24019e-014 0
rhumerus -28.7181 22.2991 -77.0962
rradius 105.941
rwrist -52.2478
rhand 1.51397 -38.996
rfingers 7.12502
rthumb 27.0397 -67.0803
lclavicle 3.24019e-014 0
lhumerus 10.39 -6.89735 60.3083
lradius 93.0773
lwrist 55.6177
lhand -21.3478 -22.2788
lfingers 7.12502
lthumb 5.03849 7.64131
rfemur -58.9136 6.36571 17.6638
rtibia 78.1903
rfoot 16.6466 -5.44912
rtoes -21.7691
lfemur -33.4215 -1.58338 -29.5844
ltibia 43.7928
lfoot -20.181 13.6389
ltoes 6.95753
399
root 4.08534 16.7521 0.154342 12.7485 1.10691 0.308122
lowerback 4.87408 -2.01888 4.94559
upperback 1.57199 -2.49023 -2.50015
thorax -1.43093 -1.25033 -5.21467
lowerneck -11.2416 5.3525 1.38082
upperneck 50.5719 8.90076 -0.661514
head 24.0991 3.38395 1.2791
rclavicle 1.98785e-014 7.95139e-016
rhumerus -29.0652 22.0834 -77.7672
rradius 105.716
rwrist -52.2358
rhand 0.636158 -37.4623
rfingers 7.12502
rthumb 26.1996 -65.6741
lclavicle 1.98785e-014 7.95139e-016
lhumerus 10.3118 -7.37736 60.7186
lradius 93.053
lwrist 55.9657
lhand -21.0728 -21.863
lfingers 7.12502
lthumb 5.3041 8.05062
rfemur -59.0129 6.53935 17.6113
rtibia 78.3019
rfoot 16.646 -5.55654
rtoes -21.287
lfemur -33.5249 -1.54495 -29.6093
ltibia 44.0029
lfoot -20.2837 13.6466
ltoes 7.09863
